# xmcd
# 
# Track frame offsets:
#     182
#     23700
#     41807
#     62325
#     92900
#     114452
#     144982
#     165392
#     179482
# 
# Disc length: 2729
# 
# Revision: 5
# Processed by: cddbd v1.5.2PL0 Copyright (c) Steve Scherf et al.
# Submitted via: fre:ac v1.1beta1pre5
# 
DISCID=6f0aa709
DTITLE=Albert King - Red House
DYEAR=1991
DGENRE=Blues
TTITLE0=Stop
TTITLE1=Bluesman
TTITLE2=Don't Let Me Be Lonely
TTITLE3=When You Walk Out The Door
TTITLE4=Problems
TTITLE5=Our Love Is Going To Win
TTITLE6=Trouble
TTITLE7=If You Got It
TTITLE8=Red House
EXTD=
EXTT0=
EXTT1=
EXTT2=
EXTT3=
EXTT4=
EXTT5=
EXTT6=
EXTT7=
EXTT8=
PLAYORDER=
